<svg xmlns="http://www.w3.org/2000/svg" viewBox="0 0 128 128" width="128" height="128" fill="none">
  <defs>
    <linearGradient id="g" x1="0" y1="0" x2="1" y2="1">
      <stop offset="0%" stop-color="#F7931A"/>
      <stop offset="100%" stop-color="#F5C542"/>
    </linearGradient>
  </defs>
  <circle cx="64" cy="64" r="60" fill="url(#g)"/>
  <path fill="#fff" d="M77.7 60.5c5.5-3 8.2-8 7.4-13.7-1.2-8.8-9.5-12.1-19.8-12.6V27H57v7.1h-6.7V27h-7.4v7.2H35v8.1h7.9v27.2H35v8.2h7.9V101h7.4v-7.3H57V101h8.3v-7.6c13.9-.8 22.8-6.9 22.8-17.4 0-7.6-4.5-12.4-10.4-15.5ZM57 41.6h8.4c6.7 0 10.7 2.6 11.3 7.1.6 4.3-2.2 7.8-8.9 8.6H57V41.6Zm8.4 41.7H57V64.8h9.1c7.7 0 12 2.7 12 9 0 6.1-4.7 9.5-12.7 9.5Z"/>
</svg>
